<svg aria-hidden="true" style="position: absolute; width: 0; height: 0; overflow: hidden;" version="1.1" xmlns="http://www.w3.org/2000/svg" xmlns:xlink="http://www.w3.org/1999/xlink">
<defs>
<symbol stroke="black" fill="none" id="icon-search" viewBox="0 0 32 32">
<path d="M14.667 25.333c0.046 0.001 0.101 0.001 0.156 0.001 5.891 0 10.667-4.776 10.667-10.667s-4.776-10.667-10.667-10.667c-0.055 0-0.11 0-0.164 0.001l0.008-0c-5.824 0.088-10.511 4.83-10.511 10.666s4.687 10.578 10.503 10.666l0.008 0zM28 28l-5.803-5.801"></path>
</symbol>
<symbol id="icon-film" viewBox="0 0 32 32">
<path stroke="white" fill="none" d="M26.427 2.667h-20.853c-1.605 0-2.907 1.301-2.907 2.907v20.853c0 1.605 1.302 2.907 2.907 2.907h20.853c1.605 0 2.907-1.302 2.907-2.907v-20.853c0-1.605-1.302-2.907-2.907-2.907zM9.333 2.667v26.666M22.667 2.667v26.666M2.667 16h26.666M2.667 9.334h6.666M2.667 22.666h6.666M22.667 22.666h6.666M22.667 9.334h6.666"></path>
</symbol>
<symbol id="icon-close" viewBox="0 0 32 32">
<path d="M8.533 8.533l14.933 14.933M8.533 23.467l14.933-14.933"></path>
</symbol>
<symbol id="icon-footer-heart" viewBox="0 0 34 32">
<path fill="#b92f2c" style="fill: var(--color1, #b92f2c)" d="M17.231 31.705l-2.412-2.412c-8.96-7.926-14.818-13.268-14.818-19.815 0-5.342 4.135-9.477 9.477-9.477 2.929 0 5.858 1.378 7.754 3.618 1.895-2.24 4.825-3.618 7.754-3.618 5.342 0 9.477 4.135 9.477 9.477 0 6.548-5.858 11.889-14.818 19.815l-2.412 2.412z"></path>
</symbol>
<symbol id="github" viewBox="0 0 24 24"><path d="M12 0c-6.626 0-12 5.373-12 12 0 5.302 3.438 9.8 8.207 11.387.599.111.793-.261.793-.577v-2.234c-3.338.726-4.033-1.416-4.033-1.416-.546-1.387-1.333-1.756-1.333-1.756-1.089-.745.083-.729.083-.729 1.205.084 1.839 1.237 1.839 1.237 1.07 1.834 2.807 1.304 3.492.997.107-.775.418-1.305.762-1.604-2.665-.305-5.467-1.334-5.467-5.931 0-1.311.469-2.381 1.236-3.221-.124-.303-.535-1.524.117-3.176 0 0 1.008-.322 3.301 1.23.957-.266 1.983-.399 3.003-.404 1.02.005 2.047.138 3.006.404 2.291-1.552 3.297-1.23 3.297-1.23.653 1.653.242 2.874.118 3.176.77.84 1.235 1.911 1.235 3.221 0 4.609-2.807 5.624-5.479 5.921.43.372.823 1.102.823 2.222v3.293c0 .319.192.694.801.576 4.765-1.589 8.199-6.086 8.199-11.386 0-6.627-5.373-12-12-12z"/></symbol>
</defs>
</svg>

</defs>
</svg>
